<svg xmlns="http://www.w3.org/2000/svg" xmlns:xlink="http://www.w3.org/1999/xlink" version="1.1" x="0px" y="0px" viewBox="0 0 32 32" enable-background="new 0 0 32 32" xml:space="preserve" style="max-width:100%" height="100%"><g display="none" style="" fill="rgb(13, 13, 18)"><g display="inline" style="" fill="rgb(13, 13, 18)"><g style="" fill="rgb(13, 13, 18)"><polygon fill="rgb(13, 13, 18)" points="22.556,0 29.245,6.689 29.245,32 5.08,32 5.08,0    " style=""></polygon></g><g style="" fill="rgb(13, 13, 18)"><polygon fill="rgb(13, 13, 18)" points="29.245,6.689 22.555,6.689 22.555,0    " style=""></polygon></g><g style="" fill="rgb(13, 13, 18)"><g style="" fill="rgb(13, 13, 18)"><rect x="2.755" y="18.313" fill="rgb(13, 13, 18)" width="24.093" height="8.118" style=""></rect></g><g style="" fill="rgb(13, 13, 18)"><polygon fill="rgb(13, 13, 18)" points="5.08,28.755 5.08,26.431 2.755,26.431     " style=""></polygon></g></g></g><g display="inline" style="" fill="rgb(13, 13, 18)"><path fill="rgb(13, 13, 18)" d="M9.058,24.835v-4.922h1.983h0.245c0.666,0,1.115,0.115,1.347,0.348c0.232,0.231,0.348,0.68,0.348,1.343    c0,0.659-0.11,1.097-0.332,1.313c-0.221,0.216-0.668,0.324-1.341,0.324l-0.216,0.004h-1.1v1.59H9.058z M9.992,22.459h1.064    c0.423,0,0.691-0.049,0.806-0.146s0.171-0.327,0.171-0.69c0-0.416-0.047-0.674-0.143-0.773c-0.095-0.1-0.342-0.149-0.741-0.149    H9.992V22.459z" style=""></path><path fill="rgb(13, 13, 18)" d="M13.576,24.835v-4.922h2.42c0.688,0,1.169,0.149,1.444,0.45c0.274,0.301,0.413,0.827,0.413,1.579    c0,1.229-0.111,2.019-0.332,2.368s-0.72,0.524-1.497,0.524H13.576z M14.51,24.049h1.331c0.447,0,0.736-0.103,0.867-0.309    c0.131-0.205,0.197-0.659,0.197-1.361c0-0.726-0.059-1.188-0.177-1.385s-0.395-0.295-0.83-0.295H14.51V24.049z" style=""></path><path fill="rgb(13, 13, 18)" d="M19.469,20.699v1.326h2.207v0.786h-2.207v2.023h-0.934v-4.922h3.26v0.786H19.469z" style=""></path></g></g><g style="" fill="rgb(13, 13, 18)"><g style="" fill="rgb(13, 13, 18)"><path d="M5.08,28.755v-2.324h0V32h24.165V6.689L22.556,0H5.08v17.313H2.755v9.118h0L5.08,28.755z M23.055,2.414l3.776,3.775    h-3.776V2.414z M6.08,1h15.974v6.189h6.19V31H6.08v-4.569h20.768v-9.118H6.08V1z M3.755,18.313h22.093v7.118H3.755V18.313z" style="" fill="rgb(13, 13, 18)"></path><path d="M11.286,19.374h-0.245H9.058v4.922h0.934v-1.59h1.1l0.216-0.004c0.673,0,1.12-0.108,1.341-0.324    c0.221-0.217,0.332-0.654,0.332-1.313c0-0.663-0.116-1.111-0.348-1.343C12.401,19.489,11.952,19.374,11.286,19.374z     M11.861,21.773c-0.114,0.098-0.383,0.146-0.806,0.146H9.992v-1.76h1.158c0.399,0,0.646,0.05,0.741,0.149    c0.095,0.1,0.143,0.357,0.143,0.773C12.033,21.446,11.976,21.676,11.861,21.773z" style="" fill="rgb(13, 13, 18)"></path><path d="M15.996,19.374h-2.42v4.922h2.449c0.776,0,1.276-0.175,1.497-0.524s0.332-1.14,0.332-2.368    c0-0.752-0.139-1.278-0.413-1.579C17.165,19.523,16.684,19.374,15.996,19.374z M16.708,23.201    c-0.131,0.206-0.42,0.309-0.867,0.309H14.51v-3.35h1.388c0.435,0,0.712,0.098,0.83,0.295s0.177,0.659,0.177,1.385    C16.905,22.542,16.839,22.996,16.708,23.201z" style="" fill="rgb(13, 13, 18)"></path><polygon points="18.535,24.296 19.469,24.296 19.469,22.272 21.676,22.272 21.676,21.486 19.469,21.486 19.469,20.16     21.795,20.16 21.795,19.374 18.535,19.374   " style="" fill="rgb(13, 13, 18)"></polygon></g></g></svg>