<svg xmlns="http://www.w3.org/2000/svg" xmlns:xlink="http://www.w3.org/1999/xlink" version="1.1" x="0px" y="0px" viewBox="0 0 64 64" enable-background="new 0 0 64 64" xml:space="preserve" style="max-width:100%" height="100%"><g style="" fill="rgb(13, 13, 18)"><path d="M51,45c-0.352,0-0.686,0.072-1,0.184V38c0-1.654-1.346-3-3-3H34c-0.771,0-1.468,0.301-2,0.78   c-0.532-0.48-1.229-0.78-2-0.78H17c-1.654,0-3,1.346-3,3v7.184C13.686,45.072,13.352,45,13,45c-1.654,0-3,1.346-3,3v6   c0,0.553,0.448,1,1,1h1v3c0,0.553,0.448,1,1,1h38c0.552,0,1-0.447,1-1v-3h1c0.552,0,1-0.447,1-1v-6C54,46.346,52.654,45,51,45z    M34,37h13c0.551,0,1,0.448,1,1v10v1H33V38C33,37.448,33.449,37,34,37z M16,38c0-0.552,0.449-1,1-1h13c0.551,0,1,0.448,1,1v11H16   v-1V38z M12,48c0-0.552,0.449-1,1-1s1,0.448,1,1v2v3h-1h-1V48z M50,57H14v-2h1c0.552,0,1-0.447,1-1v-3h16h16v3c0,0.553,0.448,1,1,1   h1V57z M52,53h-1h-1v-3v-2c0-0.552,0.449-1,1-1s1,0.448,1,1V53z" style="" fill="rgb(13, 13, 18)"></path><path d="M11,40c0.287,0,0.56-0.123,0.75-0.338c0.19-0.216,0.278-0.502,0.243-0.786l-1-8C10.93,30.376,10.504,30,10,30H4   c-0.504,0-0.93,0.376-0.992,0.876l-1,8c-0.036,0.284,0.053,0.57,0.243,0.786C2.44,39.877,2.713,40,3,40h3v19h2V40H11z M9.117,32   l0.25,2H4.633l0.25-2H9.117z M4.383,36h5.234l0.25,2H4.133L4.383,36z" style="" fill="rgb(13, 13, 18)"></path><path d="M32,18c3.86,0,7-3.141,7-7s-3.14-7-7-7s-7,3.141-7,7S28.14,18,32,18z M32,6c2.757,0,5,2.243,5,5s-2.243,5-5,5s-5-2.243-5-5   S29.243,6,32,6z" style="" fill="rgb(13, 13, 18)"></path><path d="M32,12h3c0.552,0,1-0.447,1-1s-0.448-1-1-1h-2V9c0-0.553-0.448-1-1-1s-1,0.447-1,1v2C31,11.553,31.448,12,32,12z" style="" fill="rgb(13, 13, 18)"></path><path d="M44,26h12c0.552,0,1-0.447,1-1v-8c0-0.553-0.448-1-1-1H44c-0.552,0-1,0.447-1,1v8C43,25.553,43.448,26,44,26z M45,18h10v6   H45V18z" style="" fill="rgb(13, 13, 18)"></path><path d="M8,26h12c0.552,0,1-0.447,1-1v-8c0-0.553-0.448-1-1-1H8c-0.552,0-1,0.447-1,1v8C7,25.553,7.448,26,8,26z M9,18h10v6H9V18z" style="" fill="rgb(13, 13, 18)"></path><path d="M27,23c-0.552,0-1,0.447-1,1v6c0,0.553,0.448,1,1,1h10c0.552,0,1-0.447,1-1v-6c0-0.553-0.448-1-1-1H27z M36,29h-8v-4h8V29z   " style="" fill="rgb(13, 13, 18)"></path><path d="M60.992,30.876C60.93,30.376,60.504,30,60,30h-6c-0.504,0-0.93,0.376-0.992,0.876l-1,8   c-0.036,0.284,0.053,0.57,0.243,0.786C52.44,39.877,52.713,40,53,40h3v19h2V40h3c0.287,0,0.56-0.123,0.75-0.338   c0.19-0.216,0.278-0.502,0.243-0.786L60.992,30.876z M59.117,32l0.25,2h-4.734l0.25-2H59.117z M54.133,38l0.25-2h5.234l0.25,2   H54.133z" style="" fill="rgb(13, 13, 18)"></path></g></svg>