<svg xmlns:x="http://ns.adobe.com/Extensibility/1.0/" xmlns:i="http://ns.adobe.com/AdobeIllustrator/10.0/" xmlns:graph="http://ns.adobe.com/Graphs/1.0/" xmlns="http://www.w3.org/2000/svg" xmlns:xlink="http://www.w3.org/1999/xlink" xmlns:a="http://ns.adobe.com/AdobeSVGViewerExtensions/3.0/" version="1.1" x="0px" y="0px" viewBox="0 0 100 100" enable-background="new 0 0 100 100" xml:space="preserve" style="max-width:100%" height="100%"><path d="M9.901,54.582c0.366,0.221,0.735,0.413,1.105,0.588C11.006,55.192,11,55.213,11,55.236c0,0,0,8.524,0,21.311  c0,0.799,0,1.615,0,2.446v0.156v0.078l0.016,0.28l0.031,0.312c0.034,0.237,0.006,0.335,0.122,0.766  c0.092,0.355,0.198,0.737,0.334,1.06c0.145,0.286,0.298,0.57,0.459,0.85c0.708,1.08,1.776,1.943,3.036,2.394  c0.32,0.093,0.638,0.222,0.97,0.261c0.333,0.042,0.67,0.074,1.007,0.097c0.454,0.001,0.911,0.001,1.372,0.002  c1.831,0,3.713,0,5.636,0l0.246-0.013l0.045-0.005l0.09-0.009l0.18-0.018l0.36-0.037c0.08,0.004,0.357-0.069,0.545-0.116  c0.206-0.054,0.412-0.115,0.615-0.182c0.757-0.29,1.346-0.643,1.907-1.144c0.477-0.419,0.868-0.934,1.189-1.49h41.68  c0.321,0.556,0.713,1.07,1.189,1.49c0.562,0.501,1.15,0.854,1.907,1.144c0.203,0.066,0.409,0.127,0.615,0.182  c0.188,0.047,0.465,0.12,0.545,0.116l0.36,0.037l0.18,0.018l0.09,0.009l0.045,0.005l0.246,0.013c1.923,0,3.805,0,5.636,0  c0.461,0,0.918-0.001,1.372-0.002c0.337-0.023,0.674-0.056,1.007-0.097c0.332-0.039,0.649-0.168,0.97-0.261  c1.26-0.45,2.328-1.313,3.036-2.394c0.161-0.28,0.314-0.564,0.459-0.85c0.136-0.322,0.242-0.704,0.334-1.06  c0.116-0.43,0.088-0.529,0.122-0.766l0.031-0.312L89,79.228v-0.078v-0.156c0-0.832,0-1.647,0-2.446c0-12.787,0-21.311,0-21.311  c0-0.023-0.006-0.044-0.007-0.066c0.37-0.176,0.739-0.367,1.105-0.588c2.521-1.536,4.886-4.333,5.631-8.111  c0.787-3.599-0.175-8.132-3.229-11.312c-1.481-1.609-3.474-2.812-5.662-3.503c-0.569-0.137-1.083-0.312-1.73-0.388  c-0.035-0.005-0.072-0.01-0.108-0.016v-6.501c0-5.514-4.486-10-10-10H25c-5.514,0-10,4.486-10,10v6.501  c-0.036,0.005-0.073,0.011-0.108,0.016c-0.647,0.075-1.161,0.251-1.73,0.388c-2.188,0.692-4.181,1.894-5.662,3.503  c-3.054,3.18-4.016,7.713-3.229,11.312C5.016,50.248,7.38,53.045,9.901,54.582z M70,67.335c0,2.098,0,4.179,0,6.235  c0,1.028,0,2.05,0,3.064c0,0.507,0,1.013,0,1.516v0.086H30V78.15c0-0.503,0-1.009,0-1.516c0-1.015,0-2.036,0-3.064  c0-2.056,0-4.137,0-6.235c0-1.192,0-2.398,0-3.599h40C70,64.937,70,66.143,70,67.335z M70,54.615c0,2.043,0,4.085,0,6.122H30  c0-2.036,0-4.079,0-6.122c0-0.293,0-0.585,0-0.878h40C70,54.029,70,54.322,70,54.615z M82.084,35.393  c0.383,0.002,0.841-0.057,1.153-0.02l0.733,0.039l0.522,0.087c0.323,0.026,0.729,0.171,1.096,0.252  c1.47,0.472,2.794,1.297,3.814,2.364c1.022,1.062,1.785,2.33,2.186,3.668c0.093,0.336,0.204,0.667,0.247,1.01l0.094,0.507  l0.036,0.511L92,44.241l-0.01,0.615c0.008,0.458-0.057,0.679-0.08,0.988c-0.344,2.571-1.813,4.819-3.577,6.167  c-1.748,1.382-3.809,1.983-5.397,2.115c-0.466,0.017-0.905,0.033-1.32,0.048c-0.366-0.02-0.71-0.039-1.029-0.057  c-0.33-0.048-0.636-0.092-0.916-0.133c-0.273-0.068-0.521-0.131-0.744-0.187c-0.884-0.257-1.277-0.552-1.242-0.518  c-0.201-0.189-0.518-0.18-0.707,0.021c-0.189,0.201-0.18,0.518,0.021,0.707c0.031,0.027,0.43,0.494,1.383,1.041  c0.245,0.119,0.52,0.253,0.821,0.399c0.313,0.115,0.655,0.24,1.025,0.376c0.396,0.093,0.822,0.193,1.276,0.3  c0.414,0.059,0.855,0.122,1.321,0.189c0.712,0.039,1.425,0.045,2.175-0.022c0,2.633,0,10.089,0,20.259c0,0.799,0,1.615,0,2.446  v0.156v0.002l-0.027,0.265c-0.023,0.177-0.033,0.511-0.081,0.477c-0.04,0.046-0.037,0.081-0.061,0.152  c-0.06,0.09-0.11,0.183-0.154,0.281c-0.243,0.356-0.601,0.643-1.013,0.793c-0.109,0.018-0.204,0.088-0.318,0.09  c-0.113,0.003-0.225,0.016-0.337,0.038c-0.448,0.001-0.9,0.001-1.355,0.002c-1.805,0-3.659,0-5.553,0l-0.062-0.006l-0.18-0.018  L75.5,81.188c-0.166-0.006-0.111-0.044-0.157-0.058c-0.025-0.018-0.051-0.029-0.079-0.034c-0.144-0.062-0.418-0.199-0.58-0.363  c-0.368-0.327-0.607-0.789-0.653-1.283l-0.027-0.187L74,78.904V78.15c0-0.503,0-1.009,0-1.516c0-1.015,0-2.036,0-3.064  c0-2.056,0-4.137,0-6.235c0-4.196,0-8.458,0-12.72c0-2.131,0-4.262,0-6.385c0-1.062,0-2.121,0-3.177v-0.792l0.039-0.688l0.024-0.388  l0.053-0.282c0.038-0.19,0.051-0.369,0.1-0.571c0.189-0.836,0.505-1.631,0.895-2.383c0.429-0.732,0.93-1.415,1.519-2.013  c1.199-1.172,2.693-1.998,4.269-2.344C81.284,35.472,81.692,35.467,82.084,35.393z M19,24.751c0-3.309,2.691-6,6-6h50  c3.309,0,6,2.691,6,6v6.521c-0.368,0.055-0.736,0.115-1.096,0.226c-4.645,1.113-8.647,5.072-9.625,9.994  c-0.068,0.309-0.107,0.655-0.156,0.982l-0.066,0.498l-0.021,0.4L70,44.262v0.792c0,1.056,0,2.115,0,3.177c0,0.833,0,1.671,0,2.506  H30c0-0.835,0-1.673,0-2.506c0-1.062,0-2.121,0-3.177v-0.792l-0.036-0.891l-0.021-0.4l-0.066-0.498  c-0.049-0.327-0.088-0.673-0.156-0.982c-0.978-4.922-4.98-8.88-9.625-9.994c-0.359-0.11-0.728-0.17-1.096-0.226V24.751z   M8.034,43.812l0.036-0.511l0.094-0.507c0.043-0.343,0.154-0.674,0.247-1.01c0.4-1.339,1.163-2.606,2.186-3.668  c1.021-1.067,2.345-1.892,3.814-2.364c0.366-0.081,0.772-0.226,1.096-0.252l0.522-0.087l0.733-0.039  c0.312-0.038,0.771,0.021,1.153,0.02c0.392,0.074,0.8,0.079,1.187,0.2c1.575,0.346,3.069,1.172,4.269,2.344  c0.589,0.598,1.09,1.281,1.519,2.013c0.39,0.752,0.705,1.547,0.895,2.383c0.049,0.202,0.062,0.38,0.1,0.571l0.053,0.282l0.024,0.388  L26,44.262v0.792c0,1.056,0,2.115,0,3.177c0,2.123,0,4.254,0,6.385c0,4.262,0,8.524,0,12.72c0,2.098,0,4.179,0,6.235  c0,1.028,0,2.05,0,3.064c0,0.507,0,1.013,0,1.516v0.754l-0.003,0.36l-0.027,0.187c-0.046,0.494-0.285,0.956-0.653,1.283  c-0.162,0.164-0.437,0.301-0.58,0.363c-0.028,0.005-0.054,0.016-0.079,0.034c-0.046,0.013,0.009,0.052-0.157,0.058l-0.359,0.036  l-0.18,0.018l-0.062,0.006c-1.894,0-3.748,0-5.553,0c-0.455,0-0.907-0.001-1.355-0.002c-0.112-0.022-0.224-0.035-0.337-0.038  c-0.114-0.001-0.209-0.072-0.318-0.09c-0.412-0.15-0.77-0.437-1.013-0.793c-0.044-0.099-0.095-0.191-0.154-0.281  c-0.023-0.072-0.021-0.106-0.061-0.152c-0.048,0.034-0.058-0.299-0.081-0.477L15,79.151v-0.002v-0.156c0-0.832,0-1.647,0-2.446  c0-10.17,0-17.626,0-20.259c0.75,0.067,1.463,0.061,2.175,0.022c0.466-0.067,0.907-0.13,1.321-0.189  c0.454-0.107,0.88-0.207,1.276-0.3c0.37-0.136,0.712-0.261,1.025-0.376c0.302-0.146,0.576-0.28,0.821-0.399  c0.953-0.547,1.352-1.014,1.383-1.041c0.201-0.189,0.211-0.506,0.021-0.707c-0.189-0.201-0.506-0.21-0.707-0.021  c0.035-0.034-0.358,0.261-1.242,0.518c-0.223,0.056-0.471,0.119-0.744,0.187c-0.28,0.041-0.586,0.085-0.916,0.133  c-0.319,0.018-0.663,0.037-1.029,0.057c-0.415-0.015-0.854-0.031-1.32-0.048c-1.589-0.132-3.649-0.733-5.397-2.115  c-1.764-1.347-3.233-3.596-3.577-6.167c-0.023-0.309-0.088-0.529-0.08-0.988L8,44.241L8.034,43.812z" style="" fill="rgb(13, 13, 18)"></path><path d="M40,36.79c0.52,0,1.04-0.22,1.42-0.59c0.37-0.38,0.58-0.89,0.58-1.42c0-0.52-0.21-1.04-0.58-1.41  c-0.75-0.75-2.09-0.75-2.83,0C38.21,33.74,38,34.26,38,34.78c0,0.53,0.21,1.05,0.59,1.42C38.96,36.57,39.479,36.79,40,36.79z" style="" fill="rgb(13, 13, 18)"></path><path d="M60,36.78c0.53,0,1.04-0.21,1.41-0.58c0.38-0.38,0.59-0.89,0.59-1.42c0-0.52-0.21-1.04-0.59-1.41  c-0.74-0.74-2.08-0.74-2.82,0C58.21,33.74,58,34.26,58,34.78c0,0.53,0.21,1.04,0.59,1.42C58.96,36.57,59.47,36.78,60,36.78z" style="" fill="rgb(13, 13, 18)"></path></svg>