<svg xmlns="http://www.w3.org/2000/svg" xmlns:xlink="http://www.w3.org/1999/xlink" version="1.1" x="0px" y="0px" viewBox="0 0 100 100" enable-background="new 0 0 100 100" xml:space="preserve" style="max-width:100%" height="100%"><g style="" fill="rgb(13, 13, 18)"><path d="M50.492,23.421c-0.025,0.278-0.063,0.552-0.063,0.835c0,6.572,5.101,11.894,11.392,11.894   c6.287,0,11.384-5.324,11.384-11.894c0-0.285-0.042-0.559-0.06-0.835H50.492z" style="" fill="rgb(13, 13, 18)"></path><path d="M76.306,18.366c-0.742-6.605-4.574-12.015-9.678-14.138v10.16c0,0.602-0.486,1.088-1.088,1.088s-1.089-0.486-1.089-1.088   V3.535c-0.844-0.183-1.711-0.283-2.597-0.283c-0.878,0-1.736,0.1-2.572,0.283v10.853c0,0.602-0.486,1.088-1.088,1.088   s-1.088-0.486-1.088-1.088V4.232c-5.095,2.129-8.944,7.562-9.735,14.134h-3.762v2.829h36.46v-2.829H76.306z" style="" fill="rgb(13, 13, 18)"></path></g><g style="" fill="rgb(13, 13, 18)"><circle cx="61.816" cy="42.154" r="3.494" style="" fill="rgb(13, 13, 18)"></circle><path d="M98.83,86.238l-11.668-36.12c-1.176-4.119-5.15-11.426-14.168-11.426h-2.836L61.84,57.793l-8.319-19.101h-2.797   c-9.019,0-12.621,7.307-13.794,11.426l-2.897,8.972l-8.249-28.649c-0.151-0.527-0.574-0.931-1.105-1.061l-10.344-2.491   c-3.258-0.368-5.89,0.124-8.041,1.524C3.766,30.056,1.983,32.394,1.271,35c-0.663,2.436-0.302,4.972,0.918,7.267   C2.204,42.305,16.295,72.49,16.295,72.49l-0.975,0.48c-7.074,3.478-2.023,13.745,5.054,10.267l0.769-0.379l4.904,10.485   c0.791,1.695,2.31,3.045,4.17,3.704c0.875,0.311,1.802,0.464,2.754,0.464c1.46,0,2.978-0.361,4.447-1.078   c2.257-1.104,3.815-2.871,4.533-4.835c-0.063,1.18-0.115,2.372-0.138,3.579c-0.002,0.076,0,0.172,0,0.251h40.483   c0-0.079,0.002-0.175,0-0.251c-0.394-21.284-7.779-38.693-7.779-38.693h3.702L88.799,89.73C91.153,96.976,101.111,94,98.83,86.238z    M5.188,41.461c-1.163-1.788-1.5-3.745-0.978-5.66c0.514-1.881,1.845-3.598,3.745-4.833c1.551-1.01,3.464-1.35,5.847-1.084   l9.296,2.25l10.695,37.143c0,0-15.312-32.681-15.344-32.73c-0.189-0.48-0.427-0.95-0.718-1.398   c-1.951-2.993-5.973-3.845-8.974-1.898C6.223,34.904,5.5,38.31,7.15,40.849c1.417,2.172,4.336,2.791,6.498,1.379   c1.876-1.222,2.41-3.745,1.194-5.62c-0.229-0.355-0.512-0.661-0.839-0.907c0.461,0.261,0.867,0.635,1.175,1.109   c1.407,2.164,0.792,5.069-1.369,6.474C10.929,45.158,7.062,44.341,5.188,41.461z M36.082,93.696   c-1.684,0.82-3.403,0.99-4.846,0.478c-1.095-0.387-1.981-1.16-2.429-2.121l-4.927-10.537l0.257-0.128   c7.074-3.473,2.023-13.747-5.05-10.264l-0.055,0.025L7.686,46.883c2.538,0.78,5.384,0.515,7.786-1.043   c1.165-0.759,2.027-1.794,2.621-2.95l20.925,44.749C40.018,89.785,38.755,92.389,36.082,93.696z M42.237,87.702   c-0.104-0.457-0.253-0.909-0.461-1.354l-0.07-0.149c0.026-0.199,0.015-0.405-0.044-0.611l-2.4-8.332l6.61-20.771h3.72   C49.591,56.484,43.879,69.966,42.237,87.702z" style="" fill="rgb(13, 13, 18)"></path></g></svg>